{
    "asset" : {
        "generator" : "Khronos glTF Blender I/O v1.4.40",
        "version" : "2.0"
    },
    "scene" : 0,
    "scenes" : [
        {
            "name" : "Scene",
            "nodes" : [
                1
            ]
        }
    ],
    "nodes" : [
        {
            "mesh" : 0,
            "name" : "cabin_01",
            "translation" : [
                7.62939453125e-06,
                0,
                0
            ]
        },
        {
            "children" : [
                0
            ],
            "name" : "Cabin",
            "rotation" : [
                0.7135289907455444,
                -0.0020211003720760345,
                -0.0002104714949382469,
                0.7006227374076843
            ],
            "scale" : [
                0.0014999998966231942,
                0.0014999997802078724,
                0.0014999997802078724
            ]
        }
    ],
    "meshes" : [
        {
            "name" : "Scene",
            "primitives" : [
                {
                    "attributes" : {
                        "POSITION" : 0,
                        "NORMAL" : 1,
                        "TEXCOORD_0" : 2,
                        "TEXCOORD_1" : 3
                    },
                    "indices" : 4
                }
            ]
        }
    ],
    "accessors" : [
        {
            "bufferView" : 0,
            "componentType" : 5126,
            "count" : 27691,
            "max" : [
                320.6231994628906,
                150.46546936035156,
                -1.7966421842575073
            ],
            "min" : [
                -322.2178649902344,
                -150.76698303222656,
                -263.0369873046875
            ],
            "type" : "VEC3"
        },
        {
            "bufferView" : 1,
            "componentType" : 5126,
            "count" : 27691,
            "type" : "VEC3"
        },
        {
            "bufferView" : 2,
            "componentType" : 5126,
            "count" : 27691,
            "type" : "VEC2"
        },
        {
            "bufferView" : 3,
            "componentType" : 5126,
            "count" : 27691,
            "type" : "VEC2"
        },
        {
            "bufferView" : 4,
            "componentType" : 5123,
            "count" : 81528,
            "type" : "SCALAR"
        }
    ],
    "bufferViews" : [
        {
            "buffer" : 0,
            "byteLength" : 332292,
            "byteOffset" : 0
        },
        {
            "buffer" : 0,
            "byteLength" : 332292,
            "byteOffset" : 332292
        },
        {
            "buffer" : 0,
            "byteLength" : 221528,
            "byteOffset" : 664584
        },
        {
            "buffer" : 0,
            "byteLength" : 221528,
            "byteOffset" : 886112
        },
        {
            "buffer" : 0,
            "byteLength" : 163056,
            "byteOffset" : 1107640
        }
    ],
    "buffers" : [
        {
            "byteLength" : 1270696,
            "uri" : "data:application/octet-stream;base64,"
        }
    ]
}
